<svg width="147" height="129" viewBox="0 0 147 129" fill="none" xmlns="http://www.w3.org/2000/svg">
<path d="M90.1 58.2H53.6C49 58.2 44.5 56.6 41 53.6L29.8 44.3C25.3 40.5 22.6 35 22.6 29.1C22.6 23.2 25.2 17.6 29.8 13.9L41 4.6C44.5 1.7 49 0 53.6 0H90.1C94.7 0 99.2 1.6 102.8 4.6L114 13.9C118.5 17.7 121.2 23.2 121.2 29.1C121.2 35 118.6 40.6 114 44.3L102.8 53.6C99.2 56.6 94.7 58.2 90.1 58.2ZM53.6 3C49.7 3 45.9 4.4 42.9 6.9L31.7 16.2C27.8 19.4 25.6 24.1 25.6 29.1C25.6 34.1 27.8 38.8 31.7 42L42.9 51.3C45.9 53.8 49.7 55.2 53.6 55.2H90.1C94 55.2 97.8 53.8 100.8 51.3L112 42C115.9 38.8 118.1 34.1 118.1 29.1C118.1 24.1 115.9 19.4 112 16.2L100.8 6.9C97.8 4.4 94 3 90.1 3H53.6Z" fill="url(#paint0_radial_457_487)"/>
<path d="M90.1 50.8H53.6C50.7 50.8 47.9 49.8 45.7 47.9L34.5 38.6C31.7 36.2 30 32.8 30 29.1C30 25.4 31.6 21.9 34.5 19.6L45.7 10.3C47.9 8.5 50.7 7.39999 53.6 7.39999H90.1C93 7.39999 95.8 8.4 98 10.3L109.2 19.6C112 22 113.7 25.4 113.7 29.1C113.7 32.8 112.1 36.3 109.2 38.6L98 47.9C95.8 49.8 93 50.8 90.1 50.8ZM53.6 10.4C51.4 10.4 49.3 11.2 47.6 12.6L36.4 21.9C34.2 23.7 33 26.3 33 29.1C33 31.9 34.2 34.5 36.4 36.3L47.6 45.6C49.3 47 51.4 47.8 53.6 47.8H90.1C92.3 47.8 94.4 47 96.1 45.6L107.3 36.3C109.5 34.5 110.7 31.9 110.7 29.1C110.7 26.3 109.5 23.7 107.3 21.9L96.1 12.6C94.4 11.2 92.3 10.4 90.1 10.4H53.6Z" fill="url(#paint1_radial_457_487)"/>
<path d="M90.1 43.4H53.6C52.4 43.4 51.3 43 50.4 42.3L39.2 33C38.1 32 37.4 30.7 37.4 29.2C37.4 27.7 38.1 26.3 39.2 25.4L50.4 16.1C51.3 15.4 52.4 15 53.6 15H90.1C91.3 15 92.4 15.4 93.3 16.1L104.5 25.4C105.6 26.4 106.3 27.7 106.3 29.2C106.3 30.7 105.6 32.1 104.5 33L93.3 42.3C92.4 43 91.2 43.4 90.1 43.4ZM53.6 17.8C53.1 17.8 52.7 18 52.3 18.3L41.1 27.6C40.6 28 40.4 28.5 40.4 29.1C40.4 29.7 40.7 30.2 41.1 30.6L52.3 39.9C52.7 40.2 53.1 40.4 53.6 40.4H90.1C90.6 40.4 91 40.2 91.4 39.9L102.6 30.6C103.1 30.2 103.3 29.7 103.3 29.1C103.3 28.5 103 28 102.6 27.6L91.4 18.3C91 18 90.6 17.8 90.1 17.8H53.6Z" fill="url(#paint2_radial_457_487)"/>
<path d="M88.7 36H55C54.7 36 54.3 35.9 54 35.7L47.5 30.3C47.2 30 47 29.6 47 29.1C47 28.7 47.2 28.2 47.5 27.9L54 22.5C54.3 22.3 54.6 22.2 55 22.2H88.6C88.9 22.2 89.3 22.3 89.6 22.5L96.1 27.9C96.4 28.2 96.6 28.6 96.6 29.1C96.6 29.6 96.4 30 96.1 30.3L89.6 35.7C89.4 35.9 89 36 88.7 36ZM55.5 33H88.1L92.8 29.1L88.1 25.2H55.5L50.8 29.1L55.5 33Z" fill="url(#paint3_radial_457_487)"/>
<path d="M0 81.3L10.5 79.6V90.5H23.1V99.3H10.5V112.4C10.5 114.6 10.9 116.4 11.7 117.7C12.5 119 14 119.7 16.4 119.7C17.5 119.7 18.7 119.6 19.9 119.4C21.1 119.2 22.2 118.9 23.2 118.5L24.7 126.7C23.4 127.2 22 127.7 20.5 128C18.9 128.4 17 128.6 14.8 128.6C11.9 128.6 9.5 128.2 7.7 127.4C5.8 126.6 4.3 125.5 3.2 124.2C2.1 122.8 1.3 121.1 0.800003 119.1C0.400003 117.1 0.0999985 114.9 0.0999985 112.5V81.3H0Z" fill="black"/>
<path d="M43.7 89.5C46.8 89.5 49.4 89.9 51.5 90.6C53.6 91.3 55.2 92.3 56.5 93.6C57.7 94.9 58.6 96.5 59.1 98.4C59.6 100.3 59.9 102.4 59.9 104.7V126.6C58.4 126.9 56.3 127.3 53.6 127.8C50.9 128.2 47.7 128.5 43.9 128.5C41.5 128.5 39.3 128.3 37.4 127.9C35.5 127.5 33.8 126.8 32.3 125.8C30.9 124.8 29.8 123.6 29.1 122C28.3 120.4 28 118.5 28 116.3C28 114.1 28.4 112.3 29.3 110.8C30.2 109.3 31.3 108.1 32.8 107.2C34.3 106.3 35.9 105.7 37.8 105.3C39.7 104.9 41.6 104.7 43.7 104.7C45.1 104.7 46.3 104.8 47.3 104.9C48.4 105 49.2 105.2 49.9 105.4V104.4C49.9 102.6 49.4 101.2 48.3 100.1C47.2 99 45.3 98.5 42.6 98.5C40.8 98.5 39 98.6 37.3 98.9C35.6 99.2 34.1 99.5 32.8 100L31.5 91.5C32.1 91.3 32.9 91.1 33.8 90.9C34.7 90.7 35.7 90.5 36.8 90.3C37.9 90.1 39 90 40.2 89.9C41.2 89.6 42.4 89.5 43.7 89.5ZM44.5 120.3C45.5 120.3 46.5 120.3 47.5 120.2C48.4 120.2 49.2 120.1 49.8 120V112C49.4 111.9 48.7 111.8 47.9 111.7C47.1 111.6 46.3 111.6 45.6 111.6C44.6 111.6 43.7 111.7 42.8 111.8C41.9 111.9 41.2 112.1 40.5 112.5C39.8 112.8 39.3 113.3 38.9 113.8C38.5 114.4 38.3 115.1 38.3 115.9C38.3 117.5 38.9 118.7 40 119.3C41 120 42.6 120.3 44.5 120.3Z" fill="black"/>
<path d="M82.7 89.5C85.8 89.5 88.4 89.9 90.5 90.6C92.6 91.3 94.2 92.3 95.5 93.6C96.7 94.9 97.6 96.5 98.1 98.4C98.6 100.3 98.9 102.4 98.9 104.7V126.6C97.4 126.9 95.3 127.3 92.6 127.8C89.9 128.2 86.7 128.5 82.9 128.5C80.5 128.5 78.3 128.3 76.4 127.9C74.4 127.5 72.8 126.8 71.3 125.8C69.9 124.8 68.8 123.6 68.1 122C67.3 120.4 67 118.5 67 116.3C67 114.1 67.4 112.3 68.3 110.8C69.2 109.3 70.3 108.1 71.8 107.2C73.3 106.3 74.9 105.7 76.8 105.3C78.7 104.9 80.6 104.7 82.7 104.7C84.1 104.7 85.3 104.8 86.3 104.9C87.4 105 88.2 105.2 88.9 105.4V104.4C88.9 102.6 88.4 101.2 87.3 100.1C86.2 99 84.3 98.5 81.6 98.5C79.8 98.5 78 98.6 76.3 98.9C74.6 99.2 73.1 99.5 71.8 100L70.5 91.5C71.1 91.3 71.9 91.1 72.8 90.9C73.7 90.7 74.7 90.5 75.8 90.3C76.9 90.1 78 90 79.2 89.9C80.3 89.6 81.5 89.5 82.7 89.5ZM92.5 77.2L80.9 87L76.1 82.7L86.1 71.3L92.5 77.2ZM83.6 120.3C84.6 120.3 85.6 120.3 86.6 120.2C87.5 120.2 88.3 120.1 88.9 120V112C88.5 111.9 87.8 111.8 87 111.7C86.2 111.6 85.4 111.6 84.7 111.6C83.7 111.6 82.8 111.7 81.9 111.8C81 111.9 80.3 112.1 79.6 112.5C78.9 112.8 78.4 113.3 78 113.8C77.6 114.4 77.4 115.1 77.4 115.9C77.4 117.5 78 118.7 79.1 119.3C80.2 119.9 81.6 120.3 83.6 120.3Z" fill="black"/>
<path d="M119 103.8C120 102.7 121.1 101.5 122.2 100.3C123.3 99.1 124.4 97.9 125.4 96.7C126.4 95.5 127.4 94.4 128.3 93.3C129.2 92.2 130 91.3 130.7 90.5H143.2C140.7 93.4 138.3 96.1 135.9 98.7C133.5 101.3 130.9 104 128.1 106.8C129.5 108.1 131 109.6 132.5 111.4C134 113.2 135.5 115 136.9 116.9C138.3 118.8 139.6 120.7 140.8 122.6C142 124.5 143 126.2 143.8 127.8H131.7C130.9 126.6 130.1 125.2 129.1 123.7C128.1 122.2 127.1 120.7 126 119.2C124.9 117.7 123.8 116.3 122.6 114.9C121.4 113.5 120.2 112.4 119 111.4V127.7H108.5V74.6L119 72.9V103.8Z" fill="black"/>
<path d="M146.5 93.2C146.2 93.5 145.8 93.7 145.4 93.7C145 93.7 144.6 93.5 144.3 93.2C144 92.9 143.8 92.5 143.8 92.1C143.8 91.7 144 91.3 144.3 91C144.6 90.7 145 90.5 145.4 90.5C145.8 90.5 146.2 90.7 146.5 91C146.8 91.3 147 91.7 147 92.1C147 92.5 146.8 92.9 146.5 93.2ZM144.4 91.1C144.1 91.4 144 91.7 144 92.1C144 92.5 144.1 92.8 144.4 93.1C144.7 93.4 145 93.5 145.4 93.5C145.8 93.5 146.1 93.4 146.4 93.1C146.7 92.8 146.8 92.5 146.8 92.1C146.8 91.7 146.7 91.4 146.4 91.1C146.1 90.8 145.8 90.7 145.4 90.7C145 90.7 144.7 90.9 144.4 91.1ZM145.4 91.2C145.6 91.2 145.8 91.2 145.9 91.3C146.1 91.4 146.2 91.5 146.2 91.7C146.2 91.9 146.1 92 146 92C145.9 92 145.9 92.1 145.7 92.1C145.8 92.1 145.9 92.2 146 92.3C146.1 92.4 146.1 92.5 146.1 92.6V92.7V92.8V92.9H145.8V92.8V92.7C145.8 92.5 145.7 92.4 145.6 92.3C145.5 92.3 145.4 92.2 145.3 92.2H145.1V92.9H144.8V91.2H145.4ZM145.7 91.5C145.6 91.5 145.5 91.4 145.3 91.4H145V92H145.3C145.4 92 145.5 92 145.6 92C145.7 92 145.8 91.9 145.8 91.7C145.8 91.6 145.8 91.5 145.7 91.5Z" fill="black"/>
<defs>
<radialGradient id="paint0_radial_457_487" cx="0" cy="0" r="1" gradientUnits="userSpaceOnUse" gradientTransform="translate(38.0934 62.2645) scale(107.884 107.884)">
<stop offset="0.000676319" stop-color="#C817D4"/>
<stop offset="0.1733" stop-color="#BF19CE"/>
<stop offset="0.4588" stop-color="#A61EBD"/>
<stop offset="0.8198" stop-color="#7D27A2"/>
<stop offset="0.9993" stop-color="#662C93"/>
</radialGradient>
<radialGradient id="paint1_radial_457_487" cx="0" cy="0" r="1" gradientUnits="userSpaceOnUse" gradientTransform="translate(38.0934 62.2645) scale(107.884 107.884)">
<stop offset="0.000676319" stop-color="#C817D4"/>
<stop offset="0.1733" stop-color="#BF19CE"/>
<stop offset="0.4588" stop-color="#A61EBD"/>
<stop offset="0.8198" stop-color="#7D27A2"/>
<stop offset="0.9993" stop-color="#662C93"/>
</radialGradient>
<radialGradient id="paint2_radial_457_487" cx="0" cy="0" r="1" gradientUnits="userSpaceOnUse" gradientTransform="translate(38.0934 62.2645) scale(107.884 107.884)">
<stop offset="0.000676319" stop-color="#C817D4"/>
<stop offset="0.1733" stop-color="#BF19CE"/>
<stop offset="0.4588" stop-color="#A61EBD"/>
<stop offset="0.8198" stop-color="#7D27A2"/>
<stop offset="0.9993" stop-color="#662C93"/>
</radialGradient>
<radialGradient id="paint3_radial_457_487" cx="0" cy="0" r="1" gradientUnits="userSpaceOnUse" gradientTransform="translate(38.0934 62.2645) scale(107.884 107.884)">
<stop offset="0.000676319" stop-color="#C817D4"/>
<stop offset="0.1733" stop-color="#BF19CE"/>
<stop offset="0.4588" stop-color="#A61EBD"/>
<stop offset="0.8198" stop-color="#7D27A2"/>
<stop offset="0.9993" stop-color="#662C93"/>
</radialGradient>
</defs>
</svg>
